# xmcd
#
# Track frame offsets: 
#        150
#        19083
#        36180
#        57712
#        79592
#        98451
#        119089
#        138180
#        158037
#        175160
#
# Disc length: 2633 seconds
#
# Revision: 6
# Processed by: cddbd v1.5.2PL0 Copyright (c) Steve Scherf et al.
# Submitted via: ExactAudioCopy v0.95a5
#
DISCID=7b0a470a
DTITLE=钮钮 - 化厩τ
DYEAR=2009
DGENRE=Jazz
TTITLE0=童话
TTITLE1=如果你爱我
TTITLE2=热情的沙漠
TTITLE3=有多少爱可以重来
TTITLE4=我是不是该安静的走开
TTITLE5=爱如潮水
TTITLE6=当你孤单你会想起谁
TTITLE7=你是如此难以忘记
TTITLE8=心动(guitar version)
TTITLE9=我怀念的
EXTD=YEAR: 2009
EXTT0=
EXTT1=
EXTT2=
EXTT3=
EXTT4=
EXTT5=
EXTT6=
EXTT7=
EXTT8=
EXTT9=
PLAYORDER=
